<?xml version="1.0" encoding="UTF-8" standalone="no"?>
<!-- Generator: Adobe Illustrator 15.0.0, SVG Export Plug-In . SVG Version: 6.00 Build 0)  -->

<svg
   xmlns:dc="http://purl.org/dc/elements/1.1/"
   xmlns:cc="http://creativecommons.org/ns#"
   xmlns:rdf="http://www.w3.org/1999/02/22-rdf-syntax-ns#"
   xmlns:svg="http://www.w3.org/2000/svg"
   xmlns="http://www.w3.org/2000/svg"
   xmlns:sodipodi="http://sodipodi.sourceforge.net/DTD/sodipodi-0.dtd"
   xmlns:inkscape="http://www.inkscape.org/namespaces/inkscape"
   version="1.1"
   id="Capa_1"
   x="0px"
   y="0px"
   width="600px"
   height="600px"
   viewBox="0 0 600 600"
   enable-background="new 0 0 600 600"
   xml:space="preserve"
   sodipodi:docname="ch4_pink.svg"
   inkscape:version="0.92.1 r15371"><metadata
     id="metadata9"><rdf:RDF><cc:Work
         rdf:about=""><dc:format>image/svg+xml</dc:format><dc:type
           rdf:resource="http://purl.org/dc/dcmitype/StillImage" /><dc:title></dc:title></cc:Work></rdf:RDF></metadata><defs
     id="defs7" /><sodipodi:namedview
     pagecolor="#ffffff"
     bordercolor="#666666"
     borderopacity="1"
     objecttolerance="10"
     gridtolerance="10"
     guidetolerance="10"
     inkscape:pageopacity="0"
     inkscape:pageshadow="2"
     inkscape:window-width="716"
     inkscape:window-height="480"
     id="namedview5"
     showgrid="false"
     inkscape:zoom="0.39333333"
     inkscape:cx="300"
     inkscape:cy="300"
     inkscape:window-x="0"
     inkscape:window-y="0"
     inkscape:window-maximized="0"
     inkscape:current-layer="Capa_1" /><path
     fill="#222221"
     d="M443.492,172.512v-9.202c0-30.142-24.523-54.663-54.663-54.663H211.173  c-30.141,0-54.664,24.521-54.664,54.663v9.202c-38.861,2.855-69.623,35.304-69.623,74.881v168.799  c0,41.447,33.719,75.162,75.163,75.162h275.903c41.445,0,75.162-33.715,75.162-75.162V247.393  C513.114,207.815,482.347,175.359,443.492,172.512z M183.841,163.31c0-15.073,12.258-27.331,27.332-27.331h177.656  c15.066,0,27.332,12.258,27.332,27.331v6.984h-232.32V163.31z M162.049,199.562h275.903c26.379,0,47.831,21.459,47.831,47.83v49.291  H351.062c-1.016,0-1.996,0.126-2.942,0.334c-0.956-0.208-1.937-0.334-2.95-0.334c-7.547,0-13.666,6.119-13.666,13.666  c0,17.369-14.133,31.502-31.502,31.502c-17.371,0-31.503-14.133-31.503-31.502c0-7.547-6.118-13.666-13.666-13.666  c-1.013,0-1.993,0.126-2.95,0.334c-0.945-0.208-1.926-0.334-2.941-0.334H114.218v-49.291  C114.218,221.021,135.671,199.562,162.049,199.562z M437.952,464.022H162.049c-26.378,0-47.831-21.46-47.831-47.831v-92.177h128.617  c6.188,25.864,29.435,45.169,57.166,45.169c27.73,0,50.979-19.305,57.166-45.169h128.616v92.177  C485.783,442.562,464.331,464.022,437.952,464.022z"
     id="path2"
     style="fill:#f34949;fill-opacity:1" /></svg>